<svg id="Capa_1" enable-background="new 0 0 512 512" height="512" viewBox="0 0 512 512" width="512" xmlns="http://www.w3.org/2000/svg"><g><g><path clip-rule="evenodd" d="m453.703 309.491h50.797v66.117h-50.797z" fill="#f3eae6" fill-rule="evenodd"/></g><g><path clip-rule="evenodd" d="m461.045 375.608v-66.117h-38.948-38.949-38.948-58.961v26.078 40.039z" fill="#fea610" fill-rule="evenodd"/></g><g><path clip-rule="evenodd" d="m305.252 375.608h148.451 7.342v-20.403h-7.342-148.451z" fill="#fe7600" fill-rule="evenodd"/></g><g><path clip-rule="evenodd" d="m461.045 355.205h43.455v20.403h-43.455z" fill="#cdbeb9" fill-rule="evenodd"/></g><g><path clip-rule="evenodd" d="m314.408 151.492-38.948-43.104c-7.2-7.945-19.587-8.57-27.525-1.362l-14.457 13.082 12.472 41.089 43.115 20.403 24.973-22.616c2.156-1.959 2.326-5.336.37-7.492z" fill="#f3eae6" fill-rule="evenodd"/></g><g><path clip-rule="evenodd" d="m305.252 375.608v-40.039-26.078-100.935c0-7.378-.652-9.761-6.066-15.749l-10.12-11.209-55.588-61.492-9.269-10.272c-3.061-3.434-6.094-5.477-10.913-5.477h-56.92c-78.633 0-143.008 61.009-148.508 138.306v21.424c5.499 77.326 69.874 138.335 148.508 138.335h142.782c3.345 0 6.094-2.753 6.094-6.101z" fill="#fd4755" fill-rule="evenodd"/></g><g><path clip-rule="evenodd" d="m252.896 253.391c0-53.376-43.228-96.621-96.52-96.621-53.32 0-96.52 43.246-96.52 96.621 0 53.348 43.2 96.621 96.52 96.621 53.292.001 96.52-43.273 96.52-96.621z" fill="#f3eae6" fill-rule="evenodd"/></g><g><path clip-rule="evenodd" d="m224.493 253.391c0-37.655-30.501-68.188-68.117-68.188s-68.117 30.533-68.117 68.188 30.501 68.188 68.117 68.188 68.117-30.532 68.117-68.188zm-89.207-19.778h42.18c3.26 0 5.953 2.667 5.953 5.959v27.639c0 3.292-2.693 5.959-5.953 5.959h-42.18c-3.288 0-5.953-2.667-5.953-5.959v-27.639c0-3.292 2.665-5.959 5.953-5.959z" fill="#fea610" fill-rule="evenodd"/></g><g><path clip-rule="evenodd" d="m183.419 267.21v-27.639c0-3.292-2.693-5.959-5.953-5.959h-42.18c-3.288 0-5.953 2.667-5.953 5.959v27.639c0 3.292 2.665 5.959 5.953 5.959h42.18c3.26 0 5.953-2.667 5.953-5.959z" fill="#f3eae6" fill-rule="evenodd"/></g><g><path clip-rule="evenodd" d="m206.72 120.107 55.588 61.492 10.12 11.209c5.414 5.987 6.066 8.371 6.066 15.749v187.766c0 3.348-2.75 6.101-6.095 6.101h26.759c3.345 0 6.094-2.753 6.094-6.101 0-62.598 0-125.168 0-187.766 0-7.378-.652-9.761-6.066-15.749l-10.12-11.209-55.588-61.492-9.269-10.272c-3.061-3.434-6.094-5.477-10.913-5.477h-26.759c4.819 0 7.852 2.043 10.913 5.477z" fill="#e41e2b" fill-rule="evenodd"/></g><g><path clip-rule="evenodd" d="m156.518 156.77c44.419 8.683 77.925 47.843 77.925 94.834 0 53.348-43.2 96.621-96.52 96.621-.028 0-.085 0-.142 0 6.009 1.163 12.217 1.788 18.595 1.788 53.291 0 96.52-43.274 96.52-96.621 0-53.32-43.143-96.537-96.378-96.622z" fill="#cdbeb9" fill-rule="evenodd"/></g><g><path clip-rule="evenodd" d="m147.844 185.742c32.882 4.824 58.11 33.2 58.11 67.451 0 34.761-25.994 63.45-59.584 67.649 3.26.482 6.605.738 10.006.738 37.616 0 68.117-30.533 68.117-68.188s-30.501-68.188-68.117-68.188c-2.891-.001-5.754.169-8.532.538z" fill="#fe7600" fill-rule="evenodd"/></g><g><path clip-rule="evenodd" d="m169.897 239.572v27.639c0 3.292-2.665 5.959-5.953 5.959h13.521c3.26 0 5.953-2.667 5.953-5.959v-27.639c0-3.292-2.693-5.959-5.953-5.959h-13.521c3.289 0 5.953 2.667 5.953 5.959z" fill="#cdbeb9" fill-rule="evenodd"/></g><g><path clip-rule="evenodd" d="m272.937 163.75 16.129 17.849 24.973-22.616c2.154-1.958 2.324-5.335.368-7.491l-16.129-17.849c1.956 2.157 1.786 5.533-.368 7.491z" fill="#cdbeb9" fill-rule="evenodd"/></g><g><path d="m504.5 301.991h-191.748v-93.435c0-8.95-1.157-13.208-8.001-20.777l-5.102-5.646 19.435-17.6c5.222-4.747 5.617-12.857.889-18.07l-38.956-43.112c-4.835-5.335-11.476-8.468-18.7-8.819-7.22-.349-14.109 2.114-19.415 6.933l-8.885 8.039-4.211-4.66c-3.315-3.718-8.188-7.985-16.512-7.985h-56.92c-86.224 0-156.374 70.22-156.374 156.532s70.15 156.532 156.376 156.532h36.766c4.142 0 7.5-3.358 7.5-7.5s-3.358-7.5-7.5-7.5h-36.766c-77.955 0-141.376-63.491-141.376-141.532 0-78.042 63.421-141.533 141.376-141.533h56.92c1.882 0 3.037.413 5.349 3.005l9.145 10.12c.044.051.082.106.128.156.044.049.094.091.139.139l65.566 72.559c4.129 4.566 4.129 5.148 4.129 10.718v186.367h-70c-4.142 0-7.5 3.358-7.5 7.5s3.358 7.5 7.5 7.5h71.405c7.496 0 13.594-6.101 13.594-13.601v-13.215h184.249v26.894c0 4.142 3.358 7.5 7.5 7.5s7.5-3.358 7.5-7.5v-100.509c0-4.142-3.358-7.5-7.5-7.5zm-251.522-189.413c2.348-2.132 5.408-3.218 8.611-3.063 3.219.157 6.171 1.545 8.307 3.901l37.482 41.481-17.785 16.107-45.517-50.371zm59.774 204.413h23.948v8.561c0 4.142 3.358 7.5 7.5 7.5s7.5-3.358 7.5-7.5v-8.561h23.948v18.578c0 4.142 3.358 7.5 7.5 7.5s7.5-3.358 7.5-7.5v-18.578h23.948v8.561c0 4.142 3.358 7.5 7.5 7.5s7.5-3.358 7.5-7.5v-8.561h23.948v51.117h-140.792zm155.793 51.117v-51.117h28.455v51.117z"/><path d="m78.547 175.913c-20.601 20.717-31.946 48.233-31.946 77.478 0 60.573 49.245 109.854 109.774 109.854 60.514 0 109.746-49.28 109.746-109.854 0-60.589-49.232-109.882-109.746-109.882-17.17 0-33.615 3.865-48.876 11.488-3.706 1.851-5.209 6.355-3.358 10.061 1.85 3.705 6.354 5.209 10.061 3.358 13.161-6.574 27.35-9.907 42.173-9.907 52.243 0 94.746 42.564 94.746 94.882 0 52.302-42.503 94.854-94.746 94.854-52.259 0-94.774-42.551-94.774-94.854 0-25.254 9.795-49.014 27.583-66.901 2.92-2.938 2.907-7.686-.03-10.607-2.936-2.92-7.685-2.906-10.607.03z"/><path d="m156.376 333.137c43.931 0 79.67-35.774 79.67-79.746 0-43.973-35.74-79.747-79.67-79.747s-79.67 35.774-79.67 79.747c0 43.972 35.739 79.746 79.67 79.746zm0-144.492c35.659 0 64.67 29.045 64.67 64.747s-29.011 64.746-64.67 64.746-64.67-29.045-64.67-64.746 29.011-64.747 64.67-64.747z"/><path d="m134.039 281.861h44.674c7.605 0 13.792-6.203 13.792-13.828v-29.285c0-7.625-6.188-13.828-13.792-13.828h-44.674c-7.621 0-13.821 6.203-13.821 13.828v29.285c0 7.625 6.2 13.828 13.821 13.828zm1.179-41.94h42.288v26.94h-42.288z"/></g></g></svg>