<svg id="Layer_1" height="512" viewBox="0 0 512 512" width="512" xmlns="http://www.w3.org/2000/svg" data-name="Layer 1"><path d="m486.41 89.83a18 18 0 0 1 0 25.46l-22.62 22.63-89.42-89.42 22.63-22.63a17.992 17.992 0 0 1 25.45 0z" fill="#fae099"/><path d="m463.79 137.92-154.6 154.59a299.387 299.387 0 0 1 -30.15 26.37l-.11-.14-85.58-85.57a300.539 300.539 0 0 1 25.92-29.57l155.1-155.1z" fill="#85baf8"/><path d="m399.16 135.28a14 14 0 0 1 0 19.8l-14.29 14.29-41.95-41.95 14.28-14.29a14 14 0 0 1 19.8 0z" fill="#fdddd8"/><path d="m384.87 169.37-62.08 62.08a14 14 0 0 1 -19.8 0l-22.15-22.16a14 14 0 0 1 0-19.8l62.08-62.07z" fill="#f2838d"/><path d="m278.93 318.74.11.14q-8.64 6.6-17.73 12.54l-80.54-80.54q5.955-9.09 12.58-17.71z" fill="#fae099"/><path d="m180.77 250.88q-7.935 12.03-14.68 24.82l-53.52 101.39 22.05 22.05 101.17-52.77a295.427 295.427 0 0 0 25.52-14.95z" fill="#85baf8"/><path d="m133.63 398.15-88.07 88.07c-6.31 6.3-15.98 6.94-21.5 1.43s-4.87-15.19 1.44-21.5l88.06-88.06z" fill="#adf0e5"/><path d="m436.45 39.87-14-14a17.992 17.992 0 0 0 -25.45 0l-22.63 22.63 14 14 22.63-22.63a17.992 17.992 0 0 1 25.45 0z" fill="#ddc07f"/><path d="m388.37 62.5-14-14-155.1 155.1a300.539 300.539 0 0 0 -25.92 29.57l14 14a300.386 300.386 0 0 1 25.92-29.57z" fill="#66a3cc"/><path d="m194.77 264.88-14-14q-7.935 12.03-14.68 24.82l-53.52 101.39 14 14 53.52-101.39q6.735-12.78 14.68-24.82z" fill="#66a3cc"/><path d="m377 113.13a14 14 0 0 0 -19.8 0l-14.28 14.29 10 10 14.28-14.29a14 14 0 0 1 19.8 0z" fill="#edccc8"/><path d="m352.92 137.42-10-10-62.08 62.07a14 14 0 0 0 0 19.8l10 10a14 14 0 0 1 0-19.8z" fill="#e27a87"/><path d="m193.35 233.17q-6.615 8.625-12.58 17.71l10 10q5.955-9.09 12.58-17.71l75.58 75.57z" fill="#ddc07f"/><g fill="#344d6b"><path d="m403.4 131.04-22.155-22.156a20.024 20.024 0 0 0 -28.285 0l-76.36 76.368a20 20 0 0 0 0 28.284l22.155 22.156a20 20 0 0 0 28.285 0l76.36-76.367a20.024 20.024 0 0 0 0-28.285zm-84.853 96.167a8 8 0 0 1 -11.313 0l-22.154-22.156a8 8 0 0 1 0-11.314l57.836-57.837 33.469 33.47zm76.368-76.368-10.046 10.046-33.469-33.469 10.046-10.046a8.008 8.008 0 0 1 11.314 0l22.156 22.155a8.01 8.01 0 0 1 .001 11.314z"/><path d="m426.7 21.63a24.028 24.028 0 0 0 -33.941 0l-177.732 177.728a305.689 305.689 0 0 0 -54.241 73.542l-54.173 103.653-85.358 85.358c-8.659 8.66-9.3 22.109-1.433 29.98a19.128 19.128 0 0 0 13.678 5.509 23.208 23.208 0 0 0 16.3-6.942l85.346-85.347 103.419-53.417a305.658 305.658 0 0 0 74.865-54.939l177.226-177.223a24.028 24.028 0 0 0 0-33.942zm-232.692 220.677 75.892 75.893q-3.868 2.813-7.824 5.5l-73.589-73.589q2.695-3.949 5.521-7.804zm-152.691 239.666c-3.915 3.914-9.871 4.571-13.009 1.433s-2.481-9.1 1.433-13.01l83.823-83.823 11.577 11.576zm191.7-140.918-97.267 50.732-15.807-15.806 51.457-97.481q4.882-9.251 10.4-18.1l69.977 69.977q-9.168 5.667-18.759 10.678zm71.929-52.785a294.178 294.178 0 0 1 -25.393 22.612l-78.208-78.208a294.078 294.078 0 0 1 22.167-24.83l150.858-150.858 80.931 80.93zm177.225-177.224-18.385 18.385-80.931-80.931 18.385-18.384a12.015 12.015 0 0 1 16.971 0l63.96 63.96a12.013 12.013 0 0 1 0 16.97z"/></g></svg>