<svg xmlns="http://www.w3.org/2000/svg" viewBox="0 0 100 100" width="100px" height="100px"><path fill="#c7ede6" d="M88.334,56.122c0.299-0.614,0.563-1.259,0.792-1.935c2.622-7.739-1.343-17.008-9.693-19.245c-0.903-11.338-8.87-19.115-17.867-20.442c-10.298-1.519-19.733,5.023-22.872,15.422c-3.784-1.34-7.471-1.177-10.945,0.853c-1.576,0.729-3.018,1.805-4.312,3.22c-1.9,2.077-3.134,4.7-3.637,7.465c-0.745,0.117-1.477,0.235-2.167,0.482c-4.023,1.443-6.562,4.413-7.258,8.886c-0.434,2.785,0.441,5.564,0.929,6.687c1.927,4.436,6.396,6.952,10.936,6.286c0.226-0.033,0.554,0.069,0.749,0.232c0.24,7.091,3.683,13.362,8.848,16.944c8.287,5.748,18.949,3.977,25.675-3.905c2.882,2.948,6.313,4.38,10.342,3.86c4.006-0.517,7.117-2.728,9.387-6.322c1.048,0.282,2.043,0.689,3.071,0.801c4.025,0.44,7.294-1.161,9.692-4.78c0.918-1.385,1.786-3.181,1.786-6.328C91.79,61.058,90.502,58.103,88.334,56.122z"/><path fill="#fdfcef" d="M76.488,49.52c0,0,11.643,0,11.714,0c2.689,0,4.868-2.18,4.868-4.869c0-2.346-1.659-4.303-3.868-4.765c0.025-0.205,0.043-0.413,0.043-0.625c0-2.785-2.257-5.042-5.042-5.042c-1.644,0-3.1,0.791-4.02,2.008c-0.235-3.1-3.004-5.491-6.244-5.095c-2.369,0.29-4.328,2.121-4.764,4.467c-0.14,0.752-0.125,1.483,0.014,2.168c-0.635-0.684-1.539-1.115-2.546-1.115c-1.843,0-3.347,1.435-3.466,3.248c-0.837-0.185-1.747-0.173-2.706,0.187c-1.832,0.688-3.137,2.413-3.214,4.369c-0.108,2.778,2.111,5.064,4.864,5.064c0.209,0,0.944,0,1.114,0h10.109"/><path fill="#472b29" d="M88.202,50.02H76.488c-0.276,0-0.5-0.224-0.5-0.5s0.224-0.5,0.5-0.5h11.714c2.409,0,4.369-1.959,4.369-4.368c0-2.057-1.46-3.855-3.471-4.275c-0.254-0.053-0.426-0.292-0.394-0.551c0.022-0.185,0.039-0.373,0.039-0.564c0-2.505-2.038-4.542-4.543-4.542c-1.433,0-2.752,0.66-3.62,1.81c-0.126,0.166-0.342,0.238-0.54,0.179c-0.199-0.059-0.342-0.235-0.358-0.442c-0.104-1.372-0.776-2.66-1.843-3.534c-1.078-0.882-2.44-1.275-3.842-1.103c-2.155,0.264-3.938,1.934-4.334,4.062c-0.123,0.665-0.118,1.33,0.014,1.978c0.044,0.219-0.062,0.442-0.262,0.544c-0.197,0.103-0.442,0.061-0.595-0.104c-0.572-0.616-1.347-0.955-2.181-0.955c-1.562,0-2.864,1.221-2.967,2.78c-0.01,0.146-0.082,0.28-0.199,0.367c-0.116,0.087-0.266,0.118-0.408,0.088c-0.837-0.185-1.628-0.131-2.421,0.167c-1.661,0.624-2.823,2.199-2.89,3.92c-0.047,1.202,0.385,2.339,1.216,3.203c0.831,0.865,1.949,1.341,3.148,1.341h11.224c0.276,0,0.5,0.224,0.5,0.5s-0.224,0.5-0.5,0.5H62.122c-1.474,0-2.848-0.585-3.869-1.647c-1.021-1.062-1.553-2.459-1.495-3.936c0.083-2.118,1.505-4.054,3.538-4.817c0.797-0.299,1.621-0.4,2.456-0.298c0.377-1.815,1.99-3.168,3.891-3.168c0.681,0,1.347,0.178,1.935,0.506c-0.001-0.383,0.035-0.767,0.106-1.151c0.475-2.553,2.611-4.557,5.195-4.872c1.679-0.208,3.307,0.265,4.597,1.322c0.999,0.819,1.709,1.942,2.031,3.179c1.007-0.911,2.309-1.417,3.696-1.417c3.057,0,5.543,2.486,5.543,5.542c0,0.083-0.002,0.165-0.007,0.246c2.245,0.671,3.832,2.767,3.832,5.144C93.571,47.612,91.163,50.02,88.202,50.02z"/><path fill="#fdfcef" d="M73.667,38.796c-1.801-0.118-3.351,1.126-3.462,2.778c-0.014,0.205-0.005,0.407,0.025,0.604c-0.347-0.392-0.862-0.659-1.452-0.697c-1.08-0.071-2.013,0.643-2.149,1.613c-0.197-0.054-0.401-0.09-0.614-0.104c-1.576-0.103-2.932,0.985-3.029,2.431"/><path fill="#472b29" d="M62.986,45.669c-0.006,0-0.011,0-0.017,0c-0.138-0.009-0.242-0.128-0.232-0.266c0.106-1.581,1.567-2.779,3.295-2.664c0.135,0.009,0.271,0.027,0.406,0.053c0.272-0.963,1.245-1.635,2.356-1.562c0.423,0.028,0.819,0.159,1.157,0.38c0.001-0.018,0.002-0.036,0.004-0.054c0.119-1.787,1.774-3.137,3.728-3.011c0.138,0.009,0.242,0.128,0.232,0.266c-0.008,0.137-0.103,0.243-0.266,0.233c-1.666-0.112-3.095,1.033-3.196,2.545c-0.012,0.185-0.004,0.37,0.023,0.549c0.017,0.11-0.04,0.217-0.141,0.265c-0.102,0.045-0.221,0.022-0.294-0.061c-0.321-0.362-0.775-0.581-1.281-0.613c-0.933-0.066-1.768,0.552-1.884,1.397c-0.011,0.071-0.051,0.135-0.11,0.174c-0.059,0.04-0.132,0.053-0.203,0.033c-0.188-0.051-0.379-0.083-0.565-0.096c-1.434-0.095-2.675,0.893-2.764,2.198C63.226,45.568,63.117,45.669,62.986,45.669z"/><path fill="#fdfcef" d="M90.173,40.457c-1.692-0.798-3.649-0.233-4.371,1.262c-0.09,0.186-0.156,0.377-0.2,0.571"/><path fill="#472b29" d="M85.602,42.54c-0.019,0-0.037-0.002-0.057-0.006c-0.135-0.031-0.218-0.166-0.187-0.3c0.05-0.218,0.124-0.428,0.218-0.624c0.78-1.615,2.892-2.233,4.703-1.378c0.125,0.059,0.179,0.208,0.12,0.333c-0.06,0.125-0.21,0.178-0.333,0.12c-1.567-0.738-3.378-0.226-4.039,1.144c-0.079,0.162-0.14,0.337-0.183,0.519C85.819,42.462,85.716,42.54,85.602,42.54z"/><g><path fill="#fff" d="M18.288 48.192H8.298c-.276 0-.5-.224-.5-.5s.224-.5.5-.5h9.989c.276 0 .5.224.5.5S18.564 48.192 18.288 48.192zM21.157 48.192h-1.439c-.276 0-.5-.224-.5-.5s.224-.5.5-.5h1.439c.276 0 .5.224.5.5S21.433 48.192 21.157 48.192zM25.195 48.192H22.66c-.276 0-.5-.224-.5-.5s.224-.5.5-.5h2.535c.276 0 .5.224.5.5S25.471 48.192 25.195 48.192zM25.195 50.049h-9.577c-.276 0-.5-.224-.5-.5s.224-.5.5-.5h9.577c.276 0 .5.224.5.5S25.471 50.049 25.195 50.049zM13.894 50.049h-.578c-.276 0-.5-.224-.5-.5s.224-.5.5-.5h.578c.276 0 .5.224.5.5S14.17 50.049 13.894 50.049zM11.527 50.049h-1.45c-.276 0-.5-.224-.5-.5s.224-.5.5-.5h1.45c.276 0 .5.224.5.5S11.803 50.049 11.527 50.049zM20.625 46.335h-5.007c-.276 0-.5-.224-.5-.5s.224-.5.5-.5h5.007c.276 0 .5.224.5.5S20.901 46.335 20.625 46.335zM20.625 44.478h-1.252c-.276 0-.5-.224-.5-.5s.224-.5.5-.5h1.252c.276 0 .5.224.5.5S20.901 44.478 20.625 44.478zM17.37 51.907h-1.752c-.276 0-.5-.224-.5-.5s.224-.5.5-.5h1.752c.276 0 .5.224.5.5S17.646 51.907 17.37 51.907z"/></g><g><path fill="#fff" d="M71.248 22.023h-9.989c-.276 0-.5-.224-.5-.5s.224-.5.5-.5h9.989c.276 0 .5.224.5.5S71.524 22.023 71.248 22.023zM74.117 22.023h-1.439c-.276 0-.5-.224-.5-.5s.224-.5.5-.5h1.439c.276 0 .5.224.5.5S74.393 22.023 74.117 22.023zM78.155 22.023H75.62c-.276 0-.5-.224-.5-.5s.224-.5.5-.5h2.535c.276 0 .5.224.5.5S78.431 22.023 78.155 22.023zM76.137 18.309H66.56c-.276 0-.5-.224-.5-.5s.224-.5.5-.5h9.577c.276 0 .5.224.5.5S76.414 18.309 76.137 18.309zM64.836 18.309h-.577c-.276 0-.5-.224-.5-.5s.224-.5.5-.5h.577c.276 0 .5.224.5.5S65.112 18.309 64.836 18.309zM62.469 18.309h-1.45c-.276 0-.5-.224-.5-.5s.224-.5.5-.5h1.45c.276 0 .5.224.5.5S62.746 18.309 62.469 18.309zM73.585 20.166h-5.007c-.276 0-.5-.224-.5-.5s.224-.5.5-.5h5.007c.276 0 .5.224.5.5S73.861 20.166 73.585 20.166z"/><path fill="#fff" d="M73.585 18.309h-1.252c-.276 0-.5-.224-.5-.5s.224-.5.5-.5h1.252c.276 0 .5.224.5.5S73.861 18.309 73.585 18.309zM67.129 20.166h-1.751c-.276 0-.5-.224-.5-.5s.224-.5.5-.5h1.751c.276 0 .5.224.5.5S67.405 20.166 67.129 20.166z"/></g><g><path fill="#ef8f70" d="M66.507,73.021H36.972c-3.766,0-6.847-3.081-6.847-6.847V36.639c0-3.766,3.081-6.847,6.847-6.847h29.535c3.766,0,6.847,3.081,6.847,6.847v29.535C73.354,69.94,70.273,73.021,66.507,73.021z"/><path fill="#472b29" d="M66.507,73.722H36.972c-4.162,0-7.548-3.386-7.548-7.547V36.639c0-4.162,3.386-7.547,7.548-7.547h29.535c4.161,0,7.547,3.386,7.547,7.547v29.535C74.054,70.336,70.669,73.722,66.507,73.722z M36.972,30.492c-3.39,0-6.147,2.757-6.147,6.147v29.535c0,3.39,2.758,6.147,6.147,6.147h29.535c3.39,0,6.146-2.757,6.146-6.147V36.639c0-3.39-2.757-6.147-6.146-6.147H36.972z"/><path fill="#fdfcee" d="M64.718,69.934H38.762c-3.052,0-5.549-2.497-5.549-5.549V38.429c0-3.052,2.497-5.549,5.549-5.549h25.956c3.052,0,5.549,2.497,5.549,5.549v25.956C70.267,67.437,67.77,69.934,64.718,69.934z"/><path fill="#472b29" d="M64.635 70.284H38.843c-3.298 0-5.98-2.683-5.98-5.981V38.511c0-3.298 2.683-5.981 5.98-5.981h24.562c.193 0 .35.157.35.35s-.156.35-.35.35H38.843c-2.912 0-5.281 2.369-5.281 5.281v25.792c0 2.912 2.369 5.281 5.281 5.281h25.792c2.912 0 5.281-2.369 5.281-5.281V50.034c0-.193.156-.35.35-.35s.35.157.35.35v14.269C70.616 67.601 67.933 70.284 64.635 70.284zM70.266 48.326c-.193 0-.35-.157-.35-.35v-2.745c0-.193.156-.35.35-.35s.35.157.35.35v2.745C70.616 48.169 70.46 48.326 70.266 48.326z"/><g><path fill="#472b29" d="M70.266,44.208c-0.193,0-0.35-0.157-0.35-0.35v-1.372c0-0.193,0.156-0.35,0.35-0.35s0.35,0.157,0.35,0.35v1.372C70.616,44.052,70.46,44.208,70.266,44.208z"/></g><g><path fill="#f76746" d="M52.023 39.912A11.495 11.495 0 1 0 52.023 62.901999999999994A11.495 11.495 0 1 0 52.023 39.912Z"/><path fill="#472b29" d="M52.023,63.277c-6.545,0-11.87-5.325-11.87-11.87s5.325-11.871,11.87-11.871c6.546,0,11.871,5.325,11.871,11.871S58.569,63.277,52.023,63.277z M52.023,40.286c-6.132,0-11.12,4.989-11.12,11.121s4.988,11.12,11.12,11.12s11.121-4.988,11.121-11.12S58.155,40.286,52.023,40.286z"/><path fill="#fdfcee" d="M52.054 41.497A9.844 9.902 0 1 0 52.054 61.301A9.844 9.902 0 1 0 52.054 41.497Z"/><path fill="#472b29" d="M52.091,61.538c-1.929,0-3.823-0.553-5.493-1.625c-4.733-3.037-6.154-9.341-3.167-14.054c1.439-2.271,3.68-3.842,6.309-4.423c2.661-0.589,5.392-0.097,7.696,1.383c1.629,1.044,2.924,2.517,3.747,4.258c0.06,0.125,0.006,0.274-0.119,0.333c-0.123,0.059-0.273,0.006-0.332-0.119c-0.783-1.657-2.017-3.058-3.565-4.051c-2.193-1.408-4.793-1.874-7.319-1.316c-2.497,0.553-4.626,2.045-5.994,4.203c-2.84,4.481-1.487,10.477,3.015,13.366c2.193,1.408,4.792,1.874,7.319,1.316c2.497-0.553,4.626-2.045,5.994-4.203c1.134-1.789,1.637-3.854,1.454-5.972c-0.012-0.138,0.09-0.259,0.228-0.271c0.136-0.007,0.26,0.09,0.271,0.228c0.192,2.228-0.337,4.4-1.53,6.282c-1.439,2.271-3.68,3.842-6.309,4.423C53.562,61.458,52.824,61.538,52.091,61.538z"/><path fill="#fdfcee" d="M61.535,49.002c0.057,0.233,0.106,0.468,0.146,0.705"/><path fill="#472b29" d="M61.681,49.957c-0.12,0-0.226-0.086-0.246-0.208c-0.039-0.231-0.087-0.46-0.143-0.688c-0.032-0.134,0.05-0.27,0.185-0.302c0.134-0.034,0.269,0.05,0.302,0.184c0.058,0.239,0.107,0.48,0.148,0.722c0.023,0.136-0.068,0.266-0.204,0.289C61.709,49.956,61.695,49.957,61.681,49.957z"/><path fill="#cbc9bc" d="M53.275,49.471l-6.081,6.118c-0.152,0.153-0.336,0.403-0.184,0.556c0.152,0.153,0.401-0.032,0.553-0.185l6.081-6.118c0.26,0.069,0.732,0.033,0.935-0.172l0.553-0.556c0.304-0.306,0.304-0.806,0-1.112c-0.304-0.306-0.802-0.306-1.106,0l-0.553,0.556C53.27,48.763,53.206,49.209,53.275,49.471z"/><path fill="#472b29" d="M54.578,47.773c0.2,0,0.401,0.076,0.553,0.229c0.304,0.306,0.304,0.806,0,1.112l-0.553,0.556c-0.142,0.143-0.415,0.203-0.656,0.203c-0.103,0-0.201-0.011-0.279-0.032l-6.081,6.118c-0.112,0.113-0.276,0.243-0.416,0.243c-0.05,0-0.097-0.017-0.137-0.057c-0.152-0.153,0.032-0.403,0.184-0.556l6.081-6.118c-0.068-0.262-0.005-0.709,0.198-0.913l0.553-0.556C54.178,47.849,54.378,47.773,54.578,47.773 M54.578,47.273c-0.344,0-0.666,0.134-0.907,0.377l-0.553,0.556c-0.265,0.267-0.381,0.708-0.369,1.085l-5.91,5.946c-0.684,0.688-0.274,1.171-0.184,1.261c0.131,0.132,0.306,0.205,0.492,0.205c0.254,0,0.513-0.131,0.77-0.39l5.905-5.941c0.033,0.002,0.066,0.003,0.1,0.003c0.199,0,0.696-0.034,1.011-0.351l0.553-0.556c0.498-0.501,0.498-1.316,0-1.817C55.244,47.407,54.922,47.273,54.578,47.273L54.578,47.273z"/><g><path fill="#472b29" d="M51.933 42.635c-.138 0-.25-.112-.25-.25v-.873c0-.138.112-.25.25-.25s.25.112.25.25v.873C52.183 42.523 52.071 42.635 51.933 42.635zM51.933 61.551c-.138 0-.25-.112-.25-.25v-1.164c0-.138.112-.25.25-.25s.25.112.25.25v1.164C52.183 61.439 52.071 61.551 51.933 61.551z"/><g><path fill="#472b29" d="M61.798 51.366h-1.279c-.138 0-.25-.112-.25-.25s.112-.25.25-.25h1.279c.138 0 .25.112.25.25S61.936 51.366 61.798 51.366zM43.455 51.366h-1.207c-.138 0-.25-.112-.25-.25s.112-.25.25-.25h1.207c.138 0 .25.112.25.25S43.592 51.366 43.455 51.366z"/></g></g><g><path fill="#f27e97" d="M58.824 44.47L58.009 45.29"/><path fill="#472b29" d="M58.008,45.54c-0.063,0-0.128-0.024-0.177-0.073c-0.098-0.097-0.098-0.256-0.001-0.354l0.815-0.82c0.1-0.098,0.257-0.098,0.354-0.001s0.098,0.256,0.001,0.354l-0.815,0.82C58.136,45.516,58.073,45.54,58.008,45.54z"/><g><path fill="#f27e97" d="M45.881 57.491L45.066 58.311"/><path fill="#472b29" d="M45.066,58.561c-0.063,0-0.128-0.024-0.177-0.073c-0.098-0.097-0.098-0.256-0.001-0.354l0.815-0.82c0.099-0.098,0.256-0.099,0.354-0.001c0.098,0.097,0.098,0.256,0.001,0.354l-0.815,0.82C45.194,58.537,45.13,58.561,45.066,58.561z"/></g><g><path fill="#f27e97" d="M58.995 58.402L58.18 57.582"/><path fill="#472b29" d="M58.995,58.652c-0.064,0-0.129-0.024-0.178-0.074l-0.814-0.82c-0.097-0.098-0.097-0.256,0.002-0.354c0.098-0.097,0.256-0.097,0.354,0.001l0.814,0.82c0.097,0.098,0.097,0.256-0.002,0.354C59.122,58.628,59.058,58.652,58.995,58.652z"/><g><path fill="#f27e97" d="M45.881 45.159L45.066 44.34"/><path fill="#472b29" d="M45.881,45.41c-0.064,0-0.128-0.024-0.178-0.074l-0.815-0.82c-0.097-0.098-0.097-0.256,0.001-0.354c0.099-0.097,0.256-0.097,0.354,0.001l0.815,0.82c0.097,0.098,0.097,0.256-0.001,0.354C46.009,45.385,45.945,45.41,45.881,45.41z"/></g></g></g><g><path fill="#472b29" d="M57.133,51.565h-4.074c-0.138,0-0.25-0.112-0.25-0.25s0.112-0.25,0.25-0.25h4.074c0.138,0,0.25,0.112,0.25,0.25S57.271,51.565,57.133,51.565z"/></g><g><path fill="#472b29" d="M51.895,50.692c-0.138,0-0.25-0.112-0.25-0.25v-6.693c0-0.138,0.112-0.25,0.25-0.25s0.25,0.112,0.25,0.25v6.693C52.145,50.581,52.033,50.692,51.895,50.692z"/></g><g><path fill="#f1bc19" d="M51.895 50.297000000000004A1.019 1.019 0 1 0 51.895 52.335A1.019 1.019 0 1 0 51.895 50.297000000000004Z"/><path fill="#472b29" d="M51.895,52.584c-0.699,0-1.269-0.569-1.269-1.269s0.569-1.269,1.269-1.269s1.269,0.569,1.269,1.269S52.594,52.584,51.895,52.584z M51.895,50.547c-0.424,0-0.769,0.345-0.769,0.769s0.345,0.769,0.769,0.769s0.769-0.345,0.769-0.769S52.319,50.547,51.895,50.547z"/></g></g></g><g><path fill="#fdfcef" d="M40.473,75.777c1.876,0,3.502,0,3.526,0c2.101,0,3.805-1.667,3.805-3.724c0-1.794-1.297-3.292-3.023-3.645c0.02-0.157,0.033-0.316,0.033-0.478c0-2.13-1.764-3.857-3.941-3.857c-1.285,0-2.423,0.605-3.142,1.536c-0.184-2.371-2.348-4.2-4.88-3.897c-1.851,0.222-3.383,1.622-3.723,3.417c-0.109,0.576-0.098,1.134,0.011,1.659c-0.496-0.523-1.203-0.853-1.99-0.853c-1.44,0-2.616,1.097-2.709,2.484c-0.654-0.142-1.365-0.132-2.115,0.143c-1.432,0.526-2.452,1.846-2.512,3.342c-0.085,2.125,1.65,3.873,3.802,3.873c0.163,0,0.738,0,0.87,0h7.901 M34.022,75.777h0.358"/><path fill="#472b29" d="M43.999,76.277h-3.525c-0.276,0-0.5-0.224-0.5-0.5s0.224-0.5,0.5-0.5h3.525c1.822,0,3.305-1.446,3.305-3.224c0-1.517-1.103-2.844-2.623-3.155c-0.255-0.052-0.428-0.292-0.396-0.551c0.017-0.137,0.029-0.275,0.029-0.417c0-1.851-1.543-3.357-3.44-3.357c-1.087,0-2.088,0.489-2.747,1.342c-0.126,0.164-0.34,0.232-0.539,0.173c-0.197-0.059-0.339-0.234-0.354-0.44c-0.079-1.014-0.562-1.934-1.362-2.591c-0.825-0.677-1.878-0.979-2.96-0.849c-1.639,0.196-2.992,1.436-3.292,3.014c-0.094,0.491-0.09,0.984,0.009,1.464c0.046,0.219-0.06,0.441-0.258,0.544c-0.197,0.102-0.439,0.063-0.594-0.099c-0.427-0.449-1.004-0.697-1.627-0.697c-1.164,0-2.135,0.886-2.21,2.018c-0.01,0.145-0.082,0.279-0.198,0.366c-0.117,0.087-0.264,0.12-0.406,0.089c-0.635-0.138-1.235-0.097-1.838,0.123c-1.255,0.461-2.133,1.624-2.184,2.893c-0.035,0.871,0.282,1.7,0.892,2.334c0.632,0.658,1.488,1.02,2.411,1.02h8.771c0.276,0,0.5,0.224,0.5,0.5s-0.224,0.5-0.5,0.5h-8.771c-1.181,0-2.322-0.483-3.133-1.326c-0.8-0.832-1.215-1.921-1.17-3.067c0.068-1.668,1.209-3.192,2.839-3.792c0.609-0.223,1.238-0.302,1.873-0.244c0.343-1.39,1.623-2.414,3.124-2.414c0.49,0,0.971,0.112,1.405,0.32c0.009-0.24,0.036-0.48,0.082-0.72c0.38-2.002,2.089-3.573,4.155-3.82c1.353-0.16,2.676,0.217,3.713,1.069c0.744,0.61,1.271,1.402,1.539,2.29c0.788-0.645,1.778-1.001,2.83-1.001c2.448,0,4.44,1.955,4.44,4.357c0,0.034-0.001,0.067-0.001,0.101c1.757,0.553,2.99,2.18,2.99,4.022C48.303,74.382,46.373,76.277,43.999,76.277z M34.38,76.277h-0.358c-0.276,0-0.5-0.224-0.5-0.5s0.224-0.5,0.5-0.5h0.358c0.276,0,0.5,0.224,0.5,0.5S34.657,76.277,34.38,76.277z"/><path fill="#472b29" d="M42.298,70.497c-0.018,0-0.036-0.002-0.055-0.006c-0.135-0.03-0.22-0.164-0.189-0.299c0.037-0.167,0.094-0.327,0.168-0.478c0.604-1.219,2.267-1.669,3.708-1.003c0.126,0.058,0.181,0.207,0.122,0.332c-0.058,0.125-0.208,0.18-0.331,0.122c-1.198-0.554-2.566-0.208-3.05,0.77c-0.057,0.115-0.101,0.238-0.129,0.366C42.516,70.418,42.413,70.497,42.298,70.497z"/><g><path fill="#472b29" d="M37.161,76.277h-1.103c-0.276,0-0.5-0.224-0.5-0.5s0.224-0.5,0.5-0.5h1.103c0.276,0,0.5,0.224,0.5,0.5S37.437,76.277,37.161,76.277z"/></g></g></svg>