<svg height="512" viewBox="0 0 58 60" width="512" xmlns="http://www.w3.org/2000/svg"><g id="Page-1" fill="none" fill-rule="evenodd"><g id="006---Balanced-Diet" fill-rule="nonzero"><path id="Shape" d="m45.3 59h-30.6c-.354903-.000611-.6828935-.1892836-.861847-.4957672-.1789535-.3064835-.1820562-.6848557-.008153-.9942328l1.88-3.4c1.4163978-2.5370226 4.0943734-4.1093768 7-4.11h14.58c2.9056266.0006232 5.5836022 1.5729774 7 4.11l1.88 3.4c.1739032.3093771.1708005.6877493-.008153.9942328-.1789535.3064836-.506944.4951562-.861847.4957672z" fill="#02a9f4"/><path id="Shape" d="m46.17 57.51-1.88-3.4c-1.4163978-2.5370226-4.0943734-4.1093768-7-4.11h-3c2.9056266.0006232 5.5836022 1.5729774 7 4.11l1.88 3.4c.1739032.3093771.1708005.6877493-.008153.9942328-.1789535.3064836-.506944.4951562-.861847.4957672h3c.354903-.000611.6828935-.1892836.861847-.4957672.1789535-.3064835.1820562-.6848557.008153-.9942328z" fill="#0377bc"/><path id="Shape" d="m33 17.32v32.68h-6v-32.68c1.897256.9066157 4.102744.9066157 6 0z" fill="#0377bc"/><path id="Shape" d="m48.99 7.73c-.1259648.08190426-.2644514.14270327-.41.18l-2.02.62-9.15 2.8c-.1402685.0411004-.2843354.0679035-.43.08.0166355-.1359978.02332-.2730287.02-.41.0010929-.5318437-.0593081-1.06203051-.18-1.58-.1496855-.65128162-.3921625-1.27768044-.72-1.86.0443199-.0226235.0913756-.03942913.14-.05l11.18-3.42c.972225-.29839641 2.0132362.1826867 2.4160132 1.11651354.4027769.93382684.038247 2.02114614-.8460132 2.52348646z" fill="#02a9f4"/><path id="Shape" d="m24.43 15.24c-.1223973.0727178-.2534158.1298285-.39.17l-11.02 3.37-.44.13c-.1876782.0591211-.3832308.0894654-.58.09-.8775264-.008194-1.6493755-.5820295-1.91-1.42-.15665782-.5065666-.10424188-1.0547443.1455739-1.5224445.2498157-.4677001.6762852-.8160822 1.1844261-.9675555l11.46-3.5c.048927-.0147683.0991565-.0248143.15-.03.043465.664825.1884789 1.319074.43 1.94.2371938.6239932.5639526 1.2101379.97 1.74z" fill="#02a9f4"/><path id="Shape" d="m21 34v1h-18v-1c0-3.3137085 2.6862915-6 6-6h6c1.5912989 0 3.1174224.632141 4.2426407 1.7573593s1.7573593 2.6513418 1.7573593 4.2426407z" fill="#ff9801"/><path id="Shape" d="m15 28h-3c3.3137085 0 6 2.6862915 6 6v1h3v-1c0-3.3137085-2.6862915-6-6-6z" fill="#f57c00"/><path id="Shape" d="m21 40v2c0 1.6568542-1.3431458 3-3 3h-12c-1.65685425 0-3-1.3431458-3-3v-2h6l4.29 4.29c.3930079.3899779 1.0269921.3899779 1.42 0l4.29-4.29z" fill="#ff9801"/><path id="Shape" d="m19 40-1 1v1c0 1.6568542-1.3431458 3-3 3h3c1.6568542 0 3-1.3431458 3-3v-2z" fill="#f57c00"/><path id="Shape" d="m19 40-4.29 4.29c-.3930079.3899779-1.0269921.3899779-1.42 0l-4.29-4.29z" fill="#ffdc00"/><rect id="Rectangle-path" fill="#a0522d" height="5" rx="2" width="22" x="1" y="35"/><path id="Shape" d="m21 35h-3c1.1032019.0032948 1.9967052.8967981 2 2v1c-.0032948 1.1032019-.8967981 1.9967052-2 2h3c1.1032019-.0032948 1.9967052-.8967981 2-2v-1c-.0032948-1.1032019-.8967981-1.9967052-2-2z" fill="#783e22"/><path id="Shape" d="m56.553 31.243c-1.235 4.435-4.651 7.405-7.628 6.636-.3236008-.082954-.634681-.2087313-.925-.374-.290319.1652687-.6013992.291046-.925.374-2.977.769-6.393-2.2-7.628-6.636s.176-8.646 3.153-9.412c1.2594736-.2768795 2.5773089-.0092452 3.629.737 1.080641.6873049 2.461359.6873049 3.542 0 1.0516911-.7462452 2.3695264-1.0138795 3.629-.737 2.977.769 4.388 4.982 3.153 9.412z" fill="#f44335"/><path id="Shape" d="m53.4 21.831c-.8239167-.1945413-1.687651-.1320733-2.475.179 2.613 1.1 3.788 5.072 2.628 9.233-.9 3.22-2.943 5.658-5.136 6.464.1647252.0701364.3345488.1276357.508.172 2.977.769 6.393-2.2 7.628-6.636s-.176-8.643-3.153-9.412z" fill="#c81e1e"/><path id="Shape" d="m48.412 20.873c-.247.995-1.859 1.452-3.6 1.021-1.4460718-.5840823-2.7721944-1.4295193-3.912-2.494-.1365893-.1145639-.1952705-.2973729-.1508787-.4700312.0443918-.1726584.1839702-.3044933.3588787-.3389688 1.5035723-.3709502 3.0609839-.4725206 4.6-.3 1.738.429 2.95 1.586 2.704 2.582z" fill="#60a917"/><path id="Shape" d="m35.4 2.39-1.27 2.97-3.21 7.5c-.1570883.3687533-.5191812.6080816-.92.6080816s-.7629117-.2393283-.92-.6080816l-3.21-7.5-1.27-2.97c-.1340556-.30860465-.1028944-.66407722.0828094-.94465136.1857037-.28057413.5007388-.44815895.8371906-.44534864h8.96c.3364518-.00281031.6514869.16477451.8371906.44534864.1857038.28057414.216865.63604671.0828094.94465136z" fill="#f44335"/><path id="Shape" d="m34.48 1h-3c.3364518-.00281031.6514869.16477451.8371906.44534864.1857038.28057414.216865.63604671.0828094.94465136l-1.27 2.97-2.63 6.145.58 1.355c.1570883.3687533.5191812.6080816.92.6080816s.7629117-.2393283.92-.6080816l3.21-7.5 1.27-2.97c.1340556-.30860465.1028944-.66407722-.0828094-.94465136-.1857037-.28057413-.5007388-.44815895-.8371906-.44534864z" fill="#c81e1e"/><path id="Shape" d="m37 11c.00332.1369713-.0033645.2740022-.02.41-.1382474 2.5522262-1.667009 4.822322-3.98 5.91-1.7622743.836901-3.7938523.900406-5.6049563.1752051-1.811104-.725201-3.2374038-2.173307-3.9350437-3.9952051-.2415211-.620926-.386535-1.275175-.43-1.94-.0202331-.1859776-.0302482-.3729252-.03-.56-.004372-2.23175743 1.0632733-4.32984776 2.87-5.64l3.21 7.5c.1570883.3687533.5191812.6080816.92.6080816s.7629117-.2393283.92-.6080816l3.21-7.5c.8096352.58046064 1.4821018 1.33143852 1.97 2.2.3278375.58231956.5703145 1.20871838.72 1.86.1206919.51796949.1810929 1.0481563.18 1.58z" fill="#ffdc00"/><g fill="#000"><path id="Shape" d="m7.474 24.918c.47940425.2737673 1.08996433.1072509 1.364-.372l2.635-4.612c.1750183.0377739.3530571.0598614.532.066.1776676-.0017101.3547806-.0201245.529-.055l2.628 4.6c.2805182.4650043.8808858.6211324 1.3523981.3516968.4715124-.2694357.6418041-.8659405.3836019-1.3436968l-2.391-4.186 5.35-1.631c2.433-.743 3.649-1.114 4.287-1.32.5417044.5839122 1.1672085 1.0840458 1.856 1.484v31.1h-3.293c-3.2683104.0001078-6.2796906 1.7720258-7.867 4.629l-1.889 3.4c-.3440618.6195497-.3345712 1.3749136.024948 1.9856234.3595191.6107097 1.0153769.9855632 1.724052.9853766h30.6c.7087999.0000292 1.3646706-.3751011 1.7240105-.9860611.3593399-.6109601.3684663-1.3664769.0239895-1.9859389l-1.889-3.4c-1.5873963-2.8562753-4.5982584-4.6277309-7.866-4.628h-3.293v-31.082c2.0947289-1.2128476 3.5283797-3.3081834 3.9-5.7.819-.235 2.569-.771 6.532-1.988l-2 3.5c-.2733809.4799354-.1059354 1.090619.374 1.364.4799355.2733809 1.090619.1059354 1.364-.374l3.052-5.352 1.324-.407 5.462 9.561c.1630917.318145.4835231.5251147.8405906.5429456s.6965242-.1561859.8905-.4565.2130011-.6813006.0499094-.9994456l-5.519-9.655c.8707709-1.0101209.9687342-2.47430319.2402893-3.59142194-.7284449-1.11711876-2.1077738-1.6179962-3.3832893-1.22857806l-8.947 2.734c-.789.24-1.3.4-1.663.508-.3392705-.48066371-.7321307-.92116356-1.171-1.313l.975-2.275c.2648776-.61789782.2015978-1.32753446-.1684296-1.88881652s-.9972923-.89910924-1.6695704-.89918348h-8.966c-.6722781.00007424-1.299543.33790142-1.6695704.89918348s-.4333072 1.2709187-.1684296 1.88881652l.974 2.274c-1.6413836 1.46735861-2.6018076 3.54894101-2.653 5.75-.528.159-1.363.415-2.731.834l-8.133 2.487c-.7701021.2275672-1.41560938.7565947-1.79 1.467-.57195067 1.0902743-.41969746 2.4193179.384 3.352l-2.63 4.602c-.13130734.2304675-.16567141.5036612-.0955308.7594681.0701406.2558069.23903889.4732674.4695308.6045319zm35.938 29.682 1.894 3.4h-30.606l1.889-3.4c1.2345256-2.221719 3.5763296-3.599701 6.118-3.6h14.586c2.5420285-.0000641 4.8843004 1.3779681 6.119 3.6zm-11.412-5.6h-4v-30.278c1.3075906.3655761 2.6897044.370759 4 .015zm6.764-41.219 8.947-2.735c.2539514-.07722677.5282326-.04978364.7618492.07622661.2336167.12601025.4072007.34014073.4821508.59477339.1334994.4677985-.0843855.96444169-.519 1.183-.0465964.02599211-.0968188.04486765-.149.056l-1.982.608-.045.014-1.269.39c-3.891 1.191-5.985 1.832-7.043 2.158-.0727706-.66839862-.2296792-1.32492837-.467-1.954zm-4.28-5.781-4.484 10.461-4.483-10.461zm-8.978 5.052 2.656 6.2c.3153228.7350059 1.0382112 1.2114849 1.838 1.2114849s1.5226772-.476479 1.838-1.2114849l2.662-6.213c2.1334185 2.40836869 1.9874748 6.0708179-.3308153 8.3017919-2.3182901 2.2309741-5.9836421 2.236272-8.3083719.012009s-2.4812603-5.88627497-.3548128-8.3008009zm-14.393 9.485c.1258364-.2376914.3421111-.4146762.6-.491l8.138-2.487 2.362-.723c.08082.3460091.1850601.6861259.312 1.018.1162822.2920217.2498519.5768592.4.853-.7.217-1.835.562-3.652 1.117l-6.539 2-.456.136c-.25024.0745643-.519805.0472484-.75-.076-.2369033-.1252744-.4121702-.3420995-.485-.6-.0786127-.248224-.0533604-.5177025.07-.747z"/><path id="Shape" d="m2 40.816v1.184c0 2.209139 1.790861 4 4 4h12c2.209139 0 4-1.790861 4-4v-1.184c1.1943509-.4222546 1.9947486-1.5492146 2-2.816v-1c-.0056727-1.266418-.8059932-2.3928691-2-2.815v-.185c-.0049584-3.8639376-3.1360624-6.9950416-7-7h-6c-3.86393756.0049584-6.99504164 3.1360624-7 7v.185c-1.19400678.4221309-1.99432733 1.548582-2 2.815v1c.00525139 1.2667854.80564914 2.3937454 2 2.816zm2 1.184v-1h4.586l3 3h-5.586c-1.1045695 0-2-.8954305-2-2zm7.414-1h5.172l-2.586 2.586zm8.586 1c0 1.1045695-.8954305 2-2 2h-1.586l3-3h.586zm-11-13h6c2.7600532.0033061 4.9966939 2.2399468 5 5h-16c.00330612-2.7600532 2.23994685-4.9966939 5-5zm-7 8c0-.5522847.44771525-1 1-1h18c.5522847 0 1 .4477153 1 1v1c0 .5522847-.4477153 1-1 1h-18c-.55228475 0-1-.4477153-1-1z"/><path id="Shape" d="m49.23 21.728c-.01.006-.022.008-.032.014.2364422-1.2697411 1.0714314-2.3471826 2.242-2.893.5232898-.1770073.8040073-.7447102.627-1.268s-.7447102-.8040073-1.268-.627c-.9059636.355217-1.7001783.9467343-2.3 1.713-.7198857-.6663736-1.6024269-1.1316132-2.559-1.349-1.6836358-.2163499-3.3929274-.1145861-5.039.3-.5501549.1105458-.9886037.5260299-1.1285589 1.069448s.043247 1.1190059.4715589 1.481552c.381.324.814.673 1.267 1.011-1.015613.4905768-1.854117 1.2840111-2.4 2.271-1.2530341 2.5032499-1.4811768 5.3962867-.636 8.065 1.25 4.451 4.436 7.484 7.619 7.484.4142862.0001859.8269195-.0522334 1.228-.156.231422-.0575491.4580872-.1327699.678-.225.2188333.0934289.4444913.1699854.675.229 3.569.919 7.441-2.306 8.841-7.336.8451768-2.6687133.6170341-5.5617501-.636-8.065-.6779123-1.2672716-1.8457118-2.201222-3.231-2.584-1.5289823-.3533921-3.1361084-.0388042-4.419.865zm-3.766-2.468c1.429.354 2.027 1.155 1.977 1.372-.058.214-.959.643-2.388.288-.9547822-.3615706-1.8390708-.8871352-2.613-1.553.9948179-.2054068 2.0171521-.2415807 3.024-.107zm9.684 5.187c.9856622 2.0370485 1.1440746 4.3766776.442 6.528-1.069 3.838-4 6.556-6.418 5.935-.2381184-.0622104-.4670649-.1553354-.681-.277-.3047945-.1717872-.6772055-.1717872-.982 0-.2147344.1222016-.4447444.2153489-.684.277-2.406.616-5.346-2.1-6.415-5.936-.7020746-2.1513224-.5436622-4.4909515.442-6.528.4184413-.795303 1.139209-1.3888552 2-1.647.2322608-.0598398.4711545-.0900795.711-.09.7601941.028148 1.4969072.27083 2.125.7.4032854.2560459.8468258.4423193 1.312.551v.866c0 .5522847.4477153 1 1 1s1-.4477153 1-1v-.866c.4652689-.1083884.908857-.2946819 1.312-.551.8205921-.5878261 1.8484792-.8083981 2.838-.609.8599893.2587168 1.5799314.8521826 1.998 1.647z"/></g></g></g></svg>